<svg xmlns="http://www.w3.org/2000/svg" viewBox="0 0 512 512" role="img" aria-labelledby="title desc">
  <title id="title">Capa do jogo Vogais Iniciais</title>
  <desc id="desc">Ilustração colorida com blocos de letras, nuvens e um personagem pulando em direção à letra A.</desc>
  <defs>
    <linearGradient id="sky" x1="0" x2="0" y1="0" y2="1">
      <stop offset="0%" stop-color="#89d6ff" />
      <stop offset="100%" stop-color="#d8f4ff" />
    </linearGradient>
    <linearGradient id="ground" x1="0" x2="0" y1="0" y2="1">
      <stop offset="0%" stop-color="#8cd641" />
      <stop offset="100%" stop-color="#58a628" />
    </linearGradient>
  </defs>
  <rect width="512" height="512" rx="40" fill="url(#sky)" />
  <g fill="#fff" opacity=".85">
    <circle cx="112" cy="110" r="30" />
    <circle cx="146" cy="98" r="24" />
    <circle cx="176" cy="112" r="28" />
    <circle cx="362" cy="92" r="26" />
    <circle cx="392" cy="82" r="22" />
    <circle cx="418" cy="94" r="24" />
  </g>
  <rect x="0" y="390" width="512" height="122" fill="url(#ground)" />
  <rect x="40" y="180" width="180" height="84" rx="18" fill="#ffffff" opacity=".92" />
  <text x="64" y="218" font-family="Arial, sans-serif" font-size="28" font-weight="700" fill="#17324d">🍍 _ B A C A X I</text>
  <rect x="82" y="320" width="124" height="20" rx="8" fill="#ffb347" stroke="#17324d" stroke-width="4" />
  <rect x="290" y="268" width="124" height="20" rx="8" fill="#ffb347" stroke="#17324d" stroke-width="4" />
  <rect x="108" y="264" width="54" height="54" rx="10" fill="#ffe36a" stroke="#17324d" stroke-width="4" />
  <rect x="322" y="214" width="54" height="54" rx="10" fill="#7ee081" stroke="#17324d" stroke-width="4" />
  <text x="135" y="300" text-anchor="middle" font-family="Arial, sans-serif" font-size="30" font-weight="700" fill="#17324d">E</text>
  <text x="349" y="250" text-anchor="middle" font-family="Arial, sans-serif" font-size="30" font-weight="700" fill="#17324d">A</text>
  <g transform="translate(224 280)">
    <rect x="0" y="0" width="46" height="58" rx="10" fill="#ffffff" stroke="#17324d" stroke-width="4" />
    <circle cx="14" cy="18" r="3.8" fill="#17324d" />
    <circle cx="32" cy="18" r="3.8" fill="#17324d" />
    <rect x="12" y="36" width="22" height="5" rx="2.5" fill="#17324d" />
  </g>
  <text x="256" y="458" text-anchor="middle" font-family="Arial, sans-serif" font-size="38" font-weight="700" fill="#17324d">Vogais Iniciais</text>
</svg>
