<svg xmlns="http://www.w3.org/2000/svg" viewBox="0 0 800 400" role="img" aria-labelledby="title desc">
  <title id="title">Forca das Emoções</title>
  <desc id="desc">Letras coloridas e um personagem mudando de expressão.</desc>
  <defs>
    <linearGradient id="bg" x1="0" y1="0" x2="1" y2="1">
      <stop stop-color="#fff3b6"/>
      <stop offset="1" stop-color="#bce9ff"/>
    </linearGradient>
  </defs>
  <rect width="800" height="400" rx="36" fill="url(#bg)"/>
  <circle cx="650" cy="195" r="118" fill="#ffd45a" stroke="#34302f" stroke-width="12"/>
  <circle cx="610" cy="165" r="13" fill="#34302f"/>
  <circle cx="690" cy="165" r="13" fill="#34302f"/>
  <path d="M600 235 Q650 275 700 235" fill="none" stroke="#34302f" stroke-width="12" stroke-linecap="round"/>
  <text x="55" y="100" fill="#2365bb" font-family="Arial Rounded MT Bold, Arial, sans-serif" font-size="52" font-weight="700">FORCA DAS</text>
  <text x="55" y="160" fill="#865ad8" font-family="Arial Rounded MT Bold, Arial, sans-serif" font-size="52" font-weight="700">EMOÇÕES</text>
  <g fill="#fff" stroke="#34302f" stroke-width="6">
    <rect x="58" y="210" width="62" height="76" rx="12"/>
    <rect x="134" y="210" width="62" height="76" rx="12"/>
    <rect x="210" y="210" width="62" height="76" rx="12"/>
    <rect x="286" y="210" width="62" height="76" rx="12"/>
    <rect x="362" y="210" width="62" height="76" rx="12"/>
  </g>
  <text x="77" y="266" fill="#34302f" font-family="Arial, sans-serif" font-size="42" font-weight="700">A</text>
  <text x="153" y="266" fill="#34302f" font-family="Arial, sans-serif" font-size="42" font-weight="700">M</text>
  <text x="229" y="266" fill="#34302f" font-family="Arial, sans-serif" font-size="42" font-weight="700">I</text>
  <text x="305" y="266" fill="#34302f" font-family="Arial, sans-serif" font-size="42" font-weight="700">G</text>
  <text x="381" y="266" fill="#34302f" font-family="Arial, sans-serif" font-size="42" font-weight="700">O</text>
  <text x="58" y="340" fill="#34302f" font-family="Arial, sans-serif" font-size="28" font-weight="700">DESCUBRA A PALAVRA!</text>
</svg>
